<svg xmlns="http://www.w3.org/2000/svg" width="59.334" height="61.029" viewBox="0 0 59.334 61.029">
  <g id="analysis" transform="translate(-12)">
    <path id="Path_126" data-name="Path 126" d="M42.514,16.274H22.171a2.034,2.034,0,1,1,0-4.069H42.514a2.034,2.034,0,0,1,0,4.069ZM26.24,36.617H22.171a2.034,2.034,0,0,0,0,4.069H26.24a2.034,2.034,0,1,0,0-4.069ZM34.5,54.926a2.035,2.035,0,0,1-2.034,2.034H13.782A1.787,1.787,0,0,1,12,55.178V1.782A1.84,1.84,0,0,1,13.981,0h38.8L64.891,12.206v6.233a2.034,2.034,0,1,1-4.069,0v-2.16H48.715V4.069H16.069V52.891h16.4A2.032,2.032,0,0,1,34.5,54.926Zm18.182-42.72h8.137L52.686,4.069ZM26.24,28.48H22.171a2.034,2.034,0,1,0,0,4.069H26.24a2.034,2.034,0,1,0,0-4.069Zm5.086-6.1a2.035,2.035,0,0,0-2.034-2.034h-7.12a2.034,2.034,0,1,0,0,4.069h7.12A2.035,2.035,0,0,0,31.326,22.377ZM70.5,60.434a2.416,2.416,0,0,1-3.409-.236L58.247,50.056a17.347,17.347,0,1,1,3.544-3.3l8.951,10.261A2.421,2.421,0,0,1,70.5,60.434ZM49,48.318A12.116,12.116,0,1,0,36.887,36.2,12.13,12.13,0,0,0,49,48.318Z" fill="#39f" fill-rule="evenodd"/>
  </g>
</svg>
