<svg xmlns="http://www.w3.org/2000/svg" width="59.334" height="59.334" viewBox="0 0 59.334 59.334">
  <g id="bx-support" transform="translate(-16 -16)">
    <path id="Path_112" data-name="Path 112" d="M45.667,16A29.7,29.7,0,0,0,16,45.667V57.958a5.739,5.739,0,0,0,5.933,5.509H24.9A2.967,2.967,0,0,0,27.867,60.5V45.243A2.967,2.967,0,0,0,24.9,42.276H22.206a23.7,23.7,0,0,1,46.921,0H66.434a2.967,2.967,0,0,0-2.967,2.967V63.467A5.939,5.939,0,0,1,57.534,69.4H51.6V66.434H39.734v8.9h17.8A11.879,11.879,0,0,0,69.4,63.467a5.739,5.739,0,0,0,5.933-5.509V45.667A29.7,29.7,0,0,0,45.667,16Z" fill="#39f"/>
  </g>
</svg>
