<svg xmlns="http://www.w3.org/2000/svg" width="63.898" height="59.334" viewBox="0 0 63.898 59.334">
  <g id="delivery-parcel" transform="translate(-12 -18.001)">
    <path id="Path_119" data-name="Path 119" d="M97.025,30.835,74.2,18.284a2.282,2.282,0,0,0-2.2,0L49.183,30.835a2.282,2.282,0,0,0,0,4l21.639,11.9V71.2l-6.928-3.811-2.2,4L72,77.052a2.278,2.278,0,0,0,2.2,0L97.025,64.5a2.282,2.282,0,0,0,1.182-2V32.834a2.282,2.282,0,0,0-1.182-2ZM73.1,22.889,91.19,32.834,73.1,42.779,55.019,32.834ZM93.643,61.152,75.386,71.194V46.732L93.643,36.691Z" transform="translate(-22.309)" fill="#39f"/>
    <path id="Path_120" data-name="Path 120" d="M30.257,88.564H12V84H30.257Z" transform="translate(0 -40.896)" fill="#39f"/>
    <path id="Path_121" data-name="Path 121" d="M42.257,136.564H24V132H42.257Z" transform="translate(-7.436 -70.64)" fill="#39f"/>
    <path id="Path_122" data-name="Path 122" d="M54.257,112.564H36V108H54.257Z" transform="translate(-14.872 -55.768)" fill="#39f"/>
  </g>
</svg>
