<svg xmlns="http://www.w3.org/2000/svg" width="38" height="38" viewBox="0 0 38 38">
  <g id="Group_60" data-name="Group 60" transform="translate(-318 -5213)">
    <rect id="Rectangle_141" data-name="Rectangle 141" width="38" height="38" rx="8" transform="translate(318 5213)" fill="#39f"/>
    <g id="youtube-play" transform="translate(324.005 5221.9)">
      <path id="Path_127" data-name="Path 127" d="M10.65,14.017,17.9,10.271,10.65,6.48ZM13.422,1.1q2.518,0,4.863.067t3.439.142l1.094.06.255.022a3.337,3.337,0,0,1,.345.045q.1.022.352.067a2.087,2.087,0,0,1,.427.12q.18.075.42.195a2.882,2.882,0,0,1,.465.292,3.554,3.554,0,0,1,.435.4,2.863,2.863,0,0,1,.232.277,5.033,5.033,0,0,1,.435.877,5.706,5.706,0,0,1,.4,1.514q.12.959.187,2.046t.082,1.7V11.56a31.727,31.727,0,0,1-.27,4.346A5.979,5.979,0,0,1,26.2,17.4a3.815,3.815,0,0,1-.48.922l-.21.255a3.554,3.554,0,0,1-.435.4,2.525,2.525,0,0,1-.465.285q-.24.112-.42.187a2.087,2.087,0,0,1-.427.12l-.36.067q-.112.022-.345.045l-.247.022q-3.761.285-9.4.285-3.1-.03-5.387-.1t-3-.112l-.734-.06-.539-.06a7.114,7.114,0,0,1-.817-.15,4.6,4.6,0,0,1-.764-.315,3,3,0,0,1-.847-.614A2.863,2.863,0,0,1,1.1,18.3a5.033,5.033,0,0,1-.435-.877,5.706,5.706,0,0,1-.4-1.514q-.12-.959-.187-2.046T0,12.159V9.522a31.726,31.726,0,0,1,.27-4.346A5.979,5.979,0,0,1,.64,3.685a3.815,3.815,0,0,1,.48-.922l.21-.255a3.553,3.553,0,0,1,.435-.4,2.881,2.881,0,0,1,.465-.292q.24-.12.42-.195a2.087,2.087,0,0,1,.427-.12q.247-.045.352-.067a3.337,3.337,0,0,1,.345-.045l.255-.022Q7.788,1.1,13.422,1.1Z" transform="translate(0)"/>
    </g>
  </g>
</svg>
