<svg xmlns="http://www.w3.org/2000/svg" width="37.879" height="37.879" viewBox="0 0 37.879 37.879">
  <g id="Layer_2" data-name="Layer 2" transform="translate(0.005 0.005)">
    <g id="_10.linkedin" data-name="10.linkedin" transform="translate(-0.005 -0.005)">
      <path id="Path_21" data-name="Path 21" d="M37.227,6.771A6.9,6.9,0,0,0,31.1.641a114.617,114.617,0,0,0-24.318,0A6.9,6.9,0,0,0,.641,6.77a114.616,114.616,0,0,0,0,24.318,6.9,6.9,0,0,0,6.129,6.138,114.616,114.616,0,0,0,24.318,0A6.9,6.9,0,0,0,37.227,31.1a114.619,114.619,0,0,0,0-24.327ZM12.908,29.97a.8.8,0,0,1-.8.8h-3.4a.8.8,0,0,1-.8-.8V15.706a.8.8,0,0,1,.8-.8h3.4a.8.8,0,0,1,.8.8Zm-2.5-16.416a3.228,3.228,0,1,1,3.228-3.228,3.228,3.228,0,0,1-3.228,3.228ZM30.693,30.026a.734.734,0,0,1-.736.736H26.3a.734.734,0,0,1-.736-.736V23.344c0-1,.293-4.373-2.61-4.373-2.249,0-2.707,2.309-2.8,3.346v7.717a.736.736,0,0,1-.725.736H15.9a.734.734,0,0,1-.734-.736V15.644a.734.734,0,0,1,.734-.736h3.534a.736.736,0,0,1,.736.736v1.244c.835-1.255,2.072-2.219,4.713-2.219,5.849,0,5.811,5.462,5.811,8.462Z" transform="translate(0.005 0.005)" fill="#39f"/>
    </g>
  </g>
</svg>
