<svg xmlns="http://www.w3.org/2000/svg" xmlns:xlink="http://www.w3.org/1999/xlink" width="243.4" height="28.303" viewBox="0 0 243.4 28.303">
  <defs>
    <linearGradient id="linear-gradient" y1="0.5" x2="1" y2="0.5" gradientUnits="objectBoundingBox">
      <stop offset="0" stop-color="#339"/>
      <stop offset="1" stop-color="#39f"/>
    </linearGradient>
  </defs>
  <g id="Layer_1" transform="translate(0.003 5.003)">
    <g id="Group_6" data-name="Group 6" transform="translate(-0.002 -5.003)">
      <g id="Group_5" data-name="Group 5" transform="translate(53.927)">
        <path id="Path_9" data-name="Path 9" d="M236.314,24.228h0a1.778,1.778,0,0,1,1.778-1.778h20.256a1.778,1.778,0,0,1,1.778,1.778h0a1.778,1.778,0,0,1-1.778,1.778h-8.183v13.1a1.946,1.946,0,0,1-1.946,1.945h0a1.946,1.946,0,0,1-1.945-1.945V26h-8.187a1.778,1.778,0,0,1-1.778-1.778Z" transform="translate(-198.289 -13.715)" fill="#fff"/>
        <path id="Path_10" data-name="Path 10" d="M544.489,22.446h0a1.946,1.946,0,0,0-1.945,1.945v12.8H541a2.364,2.364,0,0,1-1.37-.638c-2.28-2.5-8.646-9.447-12.1-13.28a3.066,3.066,0,0,0-2.272-.825,3.646,3.646,0,0,0-.988.16,2.491,2.491,0,0,0-.837.471,2.272,2.272,0,0,0-.58.782,2.588,2.588,0,0,0-.218,1.109V39.1a1.951,1.951,0,0,0,1.949,1.942h0a1.946,1.946,0,0,0,1.946-1.945V27.488L538.1,40.2a2.805,2.805,0,0,0,1.844.833v.012h3.537v-.031a3.32,3.32,0,0,0,.339.031,3.129,3.129,0,0,0,.988-.16,2.454,2.454,0,0,0,.837-.471,2.27,2.27,0,0,0,.58-.782,2.586,2.586,0,0,0,.218-1.109V24.387A1.949,1.949,0,0,0,544.489,22.446Z" transform="translate(-373.203 -13.71)" fill="#fff"/>
        <path id="Path_11" data-name="Path 11" d="M353.289,23.86a2.234,2.234,0,0,0-.58-.782,2.427,2.427,0,0,0-.837-.471,3.621,3.621,0,0,0-.988-.16,2.625,2.625,0,0,0-2.852,1.56c-3.257,5.895-5.611,10.26-6.455,11.972a1.725,1.725,0,0,1-3.156-.058c-.887-1.689-3.214-6.019-6.467-11.914a2.62,2.62,0,0,0-2.852-1.56,3.645,3.645,0,0,0-.988.16,2.493,2.493,0,0,0-.837.471,2.27,2.27,0,0,0-.58.782,2.587,2.587,0,0,0-.218,1.109V39.1a1.951,1.951,0,0,0,1.949,1.942h0a1.946,1.946,0,0,0,1.946-1.945V28.186l6.14,11.148c.549.9.984,1.7,2.3,1.7h2.366c1.292,0,1.817-.735,2.432-1.833l6.012-11.015V39.1a1.946,1.946,0,0,0,1.945,1.945h0a1.945,1.945,0,0,0,1.945-1.942V24.968a2.531,2.531,0,0,0-.214-1.109Z" transform="translate(-253.374 -13.708)" fill="#fff"/>
        <path id="Path_12" data-name="Path 12" d="M158.167,27.678h.019s-1.051-1.65-1.786-2.685c-1.537-2.163-3.148-2.619-4.424-2.552a4.974,4.974,0,0,0-4.486,2.6c-.525.86-1.728,2.634-1.728,2.634h.019l-6.856,10.307a1.967,1.967,0,0,0,1.638,3.058h0a1.961,1.961,0,0,0,1.642-.883l8.3-12.579h0c.031-.054.066-.105.082-.128a1.506,1.506,0,0,1,2.786,0c.016.023.051.074.082.125h0l8.3,12.583a1.967,1.967,0,0,0,1.642.883h0a1.967,1.967,0,0,0,1.638-3.058l-6.856-10.307Z" transform="translate(-138.593 -13.705)" fill="#fff"/>
        <path id="Path_13" data-name="Path 13" d="M444.477,27.678h.019s-1.051-1.65-1.786-2.685c-1.537-2.163-3.148-2.619-4.424-2.552a4.974,4.974,0,0,0-4.486,2.6c-.525.86-1.728,2.634-1.728,2.634h.019l-6.856,10.307a1.967,1.967,0,0,0,1.638,3.058h0a1.962,1.962,0,0,0,1.642-.883l8.3-12.579h0c.031-.054.066-.105.082-.128a1.506,1.506,0,0,1,2.786,0c.016.023.051.074.082.125h0l8.3,12.583a1.967,1.967,0,0,0,1.642.883h0a1.967,1.967,0,0,0,1.638-3.058l-6.856-10.307Z" transform="translate(-313.5 -13.705)" fill="#fff"/>
        <g id="Group_4" data-name="Group 4" transform="translate(179.166)">
          <path id="Path_14" data-name="Path 14" d="M599.064,7.07,602.216,0h1.615l3.159,7.07h-1.716L602.686.829h.646l-2.6,6.241H599.06Zm1.576-1.514.436-1.241h3.638l.443,1.241h-4.514Z" transform="translate(-599.06)" fill="#39f"/>
          <path id="Path_15" data-name="Path 15" d="M621.34,7.07V0h1.638V7.07Z" transform="translate(-612.671)" fill="#39f"/>
        </g>
      </g>
      <path id="Path_16" data-name="Path 16" d="M5.329,40.5a5.01,5.01,0,0,1-3.77-1.759,6.557,6.557,0,0,1,0-8.494l6.268-7.058a9.061,9.061,0,0,1,13.863,0l3.949,4.447,1.07-1.206a4.921,4.921,0,0,1,7.541,0,6.557,6.557,0,0,1,0,8.494L32.57,36.816a9.043,9.043,0,0,1-13.86,0l-3.949-4.447L9.1,38.738A5.023,5.023,0,0,1,5.333,40.5Z" transform="translate(0.002 -12.194)" fill="url(#linear-gradient)"/>
    </g>
  </g>
</svg>
