<svg xmlns="http://www.w3.org/2000/svg" width="59.338" height="59.334" viewBox="0 0 59.338 59.334">
  <g id="machine-learning-model" transform="translate(-12 -12)">
    <path id="Path_113" data-name="Path 113" d="M127.072,128.476a6.272,6.272,0,0,0-2.723.636L115.237,120H108v4.238h5.48l7.872,7.872a6.286,6.286,0,0,0-.638,2.723,6.357,6.357,0,1,0,6.357-6.357Zm0,8.476a2.119,2.119,0,1,1,2.119-2.119A2.119,2.119,0,0,1,127.072,136.953Z" transform="translate(-62.095 -69.857)" fill="#39f"/>
    <path id="Path_114" data-name="Path 114" d="M127.072,78a6.347,6.347,0,0,0-5.967,4.238H108v4.238h13.1A6.347,6.347,0,1,0,127.072,78Zm0,8.476a2.119,2.119,0,1,1,2.119-2.119A2.119,2.119,0,0,1,127.072,86.476Z" transform="translate(-62.095 -42.69)" fill="#39f"/>
    <path id="Path_115" data-name="Path 115" d="M127.072,12a6.364,6.364,0,0,0-6.357,6.357,6.285,6.285,0,0,0,.737,2.909L113.5,28.953H108v4.238h7.213l9.324-9.01A6.355,6.355,0,1,0,127.072,12Zm0,8.476a2.119,2.119,0,1,1,2.119-2.119A2.119,2.119,0,0,1,127.072,20.476Z" transform="translate(-62.095 0)" fill="#39f"/>
    <path id="Path_116" data-name="Path 116" d="M45.905,28.238h4.238V24H45.905a8.425,8.425,0,0,0-6.357,2.929A8.425,8.425,0,0,0,33.191,24H31.072A19.093,19.093,0,0,0,12,43.072V55.786A19.093,19.093,0,0,0,31.072,74.858h2.119a8.425,8.425,0,0,0,6.357-2.929,8.425,8.425,0,0,0,6.357,2.929h4.238V70.62H45.905a4.242,4.242,0,0,1-4.238-4.238V32.476A4.242,4.242,0,0,1,45.905,28.238ZM33.191,70.62H31.072A14.844,14.844,0,0,1,16.408,57.905h4.069V53.667H16.238V45.191H22.6a6.364,6.364,0,0,0,6.357-6.357V34.6H24.714v4.238A2.119,2.119,0,0,1,22.6,40.953H16.408A14.844,14.844,0,0,1,31.072,28.238h2.119a4.242,4.242,0,0,1,4.238,4.238v8.476H33.191v4.238h4.238v8.476H33.191a6.364,6.364,0,0,0-6.357,6.357v4.238h4.238V60.024a2.119,2.119,0,0,1,2.119-2.119h4.238v8.476a4.242,4.242,0,0,1-4.238,4.238Z" transform="translate(0 -7.762)" fill="#39f"/>
  </g>
</svg>
