<svg xmlns="http://www.w3.org/2000/svg" width="785.6" height="451.755" viewBox="0 0 785.6 451.755">
  <path id="Path_17" data-name="Path 17" d="M116.5,468.715c-31.119,0-60.367-13.6-82.388-38.431-45.488-51.184-45.488-134.422,0-185.607L171.086,90.445C211.473,44.957,265.292,19.96,322.6,19.96s111.126,25,151.427,70.485l86.3,97.182,23.382-26.357c22.021-24.742,51.269-38.431,82.388-38.431s60.367,13.6,82.388,38.431c45.488,51.184,45.488,134.422,0,185.607l-36.73,41.406c-40.471,45.573-94.206,70.655-151.427,70.655S449.369,433.855,408.9,388.282L322.6,291.1,198.974,430.284c-22.021,24.742-51.269,38.431-82.388,38.431Z" transform="translate(1.503 -18.46)" fill="none" stroke="#39f" stroke-width="3"/>
</svg>
