<svg xmlns="http://www.w3.org/2000/svg" width="1488.601" height="874.916" viewBox="0 0 1488.601 874.916">
  <path id="Path_106" data-name="Path 106" d="M214.158,844.875c-57.2,0-110.968-25.007-151.448-70.644-83.617-94.089-83.617-247.1,0-341.188L314.5,149.527C388.738,65.91,487.671,19.96,593.013,19.96S797.288,65.91,871.371,149.527L1030.009,328.17l42.981-48.451c40.48-45.481,94.245-70.644,151.448-70.644s110.968,25.007,151.448,70.644c83.617,94.089,83.617,247.1,0,341.188l-67.519,76.115c-74.4,83.773-173.173,129.88-278.358,129.88S826.046,780.8,751.651,697.022L593.013,518.379,365.763,774.231c-40.48,45.481-94.245,70.644-151.448,70.644Z" transform="translate(25.003 5.04)" fill="none" stroke="#339" stroke-width="50" opacity="0.12"/>
</svg>
