<svg xmlns="http://www.w3.org/2000/svg" width="59.334" height="59.334" viewBox="0 0 59.334 59.334">
  <g id="scale" transform="translate(-30 -30)">
    <path id="Path_117" data-name="Path 117" d="M51.576,102H35.394A5.394,5.394,0,0,0,30,107.394v16.182a5.394,5.394,0,0,0,5.394,5.394H51.576a5.394,5.394,0,0,0,5.394-5.394V107.394A5.394,5.394,0,0,0,51.576,102ZM35.394,123.576V107.394H51.576v16.182Z" transform="translate(0 -39.636)" fill="#39f"/>
    <path id="Path_118" data-name="Path 118" d="M80.97,73.152v5.394H97.152a5.394,5.394,0,0,0,5.394-5.394V35.394A5.394,5.394,0,0,0,97.152,30H59.394A5.394,5.394,0,0,0,54,35.394V51.576h5.394V35.394H97.152V73.152" transform="translate(-13.212 0)" fill="#39f"/>
  </g>
</svg>
