<svg id="facebook_733603" xmlns="http://www.w3.org/2000/svg" width="37.879" height="37.879" viewBox="0 0 37.879 37.879">
  <g id="Group_13" data-name="Group 13">
    <path id="Path_25" data-name="Path 25" d="M33.144,0H4.735A4.74,4.74,0,0,0,0,4.735V33.144a4.74,4.74,0,0,0,4.735,4.735h14.2V24.858H14.2V18.939h4.735V14.2a7.1,7.1,0,0,1,7.1-7.1h4.735v5.919H28.409c-1.307,0-2.367-.123-2.367,1.184v4.735H31.96l-2.367,5.919H26.042V37.879h7.1a4.74,4.74,0,0,0,4.735-4.735V4.735A4.74,4.74,0,0,0,33.144,0Z" fill="#39f"/>
  </g>
</svg>
