<svg id="instagram_1400829" xmlns="http://www.w3.org/2000/svg" width="37.879" height="37.879" viewBox="0 0 37.879 37.879">
  <path id="Path_22" data-name="Path 22" d="M217.658,214.329A3.329,3.329,0,1,1,214.329,211,3.329,3.329,0,0,1,217.658,214.329Zm0,0" transform="translate(-195.39 -195.39)" fill="#39f"/>
  <path id="Path_23" data-name="Path 23" d="M135.684,120H124.439A4.444,4.444,0,0,0,120,124.439v11.245a4.444,4.444,0,0,0,4.439,4.439h11.245a4.444,4.444,0,0,0,4.439-4.439V124.439A4.444,4.444,0,0,0,135.684,120Zm-5.623,15.61a5.549,5.549,0,1,1,5.549-5.549A5.555,5.555,0,0,1,130.062,135.61Zm6.362-10.8a1.11,1.11,0,1,1,1.11-1.11A1.11,1.11,0,0,1,136.424,124.809Zm0,0" transform="translate(-111.122 -111.122)" fill="#39f"/>
  <path id="Path_24" data-name="Path 24" d="M27.891,0H9.988A10,10,0,0,0,0,9.988v17.9a10,10,0,0,0,9.988,9.988h17.9a10,10,0,0,0,9.988-9.988V9.988A10,10,0,0,0,27.891,0Zm3.329,24.562a6.666,6.666,0,0,1-6.658,6.658H13.317a6.666,6.666,0,0,1-6.658-6.658V13.317a6.666,6.666,0,0,1,6.658-6.658H24.562a6.666,6.666,0,0,1,6.658,6.658Zm0,0" fill="#39f"/>
</svg>
