<svg xmlns="http://www.w3.org/2000/svg" xmlns:xlink="http://www.w3.org/1999/xlink" width="447.667" height="52.055" viewBox="0 0 447.667 52.055">
  <defs>
    <linearGradient id="linear-gradient" y1="0.5" x2="1" y2="0.5" gradientUnits="objectBoundingBox">
      <stop offset="0" stop-color="#339"/>
      <stop offset="1" stop-color="#39f"/>
    </linearGradient>
  </defs>
  <g id="Layer_1" transform="translate(0.003)">
    <g id="Group_3" data-name="Group 3" transform="translate(-0.002)">
      <g id="Group_2" data-name="Group 2" transform="translate(99.183)">
        <path id="Path_1" data-name="Path 1" d="M236.317,25.72h0a3.269,3.269,0,0,1,3.27-3.27h37.256a3.269,3.269,0,0,1,3.27,3.27h0a3.269,3.269,0,0,1-3.27,3.27h-15.05v24.1a3.579,3.579,0,0,1-3.578,3.578h0a3.579,3.579,0,0,1-3.578-3.578V28.984H239.58a3.269,3.269,0,0,1-3.27-3.27Z" transform="translate(-166.38 -6.384)" fill="#339"/>
        <path id="Path_2" data-name="Path 2" d="M562.834,22.448h0a3.579,3.579,0,0,0-3.578,3.578V49.563h-2.841A4.349,4.349,0,0,1,553.9,48.39c-4.194-4.594-15.9-17.376-22.263-24.425a5.64,5.64,0,0,0-4.179-1.517,6.705,6.705,0,0,0-1.818.293,4.583,4.583,0,0,0-1.539.866,4.176,4.176,0,0,0-1.066,1.438,4.759,4.759,0,0,0-.4,2.04v26a3.589,3.589,0,0,0,3.585,3.571h0a3.579,3.579,0,0,0,3.578-3.578V31.723L551.076,55.1a5.16,5.16,0,0,0,3.392,1.531v.021h6.505v-.057a6.1,6.1,0,0,0,.623.057,5.755,5.755,0,0,0,1.818-.293,4.515,4.515,0,0,0,1.539-.866,4.178,4.178,0,0,0,1.066-1.438,4.76,4.76,0,0,0,.4-2.04V26.019A3.584,3.584,0,0,0,562.834,22.448Z" transform="translate(-247.8 -6.382)" fill="#339"/>
        <path id="Path_3" data-name="Path 3" d="M375.787,25.052a4.109,4.109,0,0,0-1.066-1.438,4.463,4.463,0,0,0-1.539-.866,6.66,6.66,0,0,0-1.818-.293c-2.111-.086-3.757.172-5.246,2.87-5.99,10.842-10.319,18.871-11.872,22.02a3.172,3.172,0,0,1-5.8-.107c-1.632-3.106-5.911-11.071-11.894-21.913-1.488-2.7-3.134-2.963-5.246-2.87a6.7,6.7,0,0,0-1.818.293,4.583,4.583,0,0,0-1.539.866,4.177,4.177,0,0,0-1.066,1.438,4.76,4.76,0,0,0-.4,2.04v26a3.589,3.589,0,0,0,3.585,3.571h0a3.579,3.579,0,0,0,3.578-3.578V33.01l11.293,20.5c1.009,1.653,1.811,3.127,4.229,3.127h4.351c2.376,0,3.342-1.353,4.473-3.371l11.057-20.26V53.083a3.579,3.579,0,0,0,3.578,3.578h0A3.578,3.578,0,0,0,376.2,53.09v-26a4.657,4.657,0,0,0-.394-2.04Z" transform="translate(-192.021 -6.381)" fill="#339"/>
        <path id="Path_4" data-name="Path 4" d="M174.594,32.078h.036s-1.932-3.034-3.285-4.938c-2.827-3.979-5.789-4.816-8.137-4.695a9.149,9.149,0,0,0-8.251,4.788c-.966,1.582-3.177,4.845-3.177,4.845h.036L139.206,51.035a3.618,3.618,0,0,0,3.013,5.625h0a3.608,3.608,0,0,0,3.02-1.624L160.5,31.9h0c.057-.1.122-.193.15-.236a2.77,2.77,0,0,1,5.124,0c.029.043.093.136.15.229h0l15.257,23.144a3.617,3.617,0,0,0,3.02,1.624h0a3.618,3.618,0,0,0,3.013-5.625L174.6,32.078Z" transform="translate(-138.593 -6.38)" fill="#339"/>
        <path id="Path_5" data-name="Path 5" d="M460.9,32.078h.036s-1.932-3.034-3.285-4.938c-2.827-3.979-5.789-4.816-8.137-4.695a9.149,9.149,0,0,0-8.251,4.788c-.966,1.582-3.177,4.845-3.177,4.845h.036L425.516,51.035a3.618,3.618,0,0,0,3.013,5.625h0a3.608,3.608,0,0,0,3.02-1.624L446.806,31.9h0c.057-.1.122-.193.15-.236a2.77,2.77,0,0,1,5.124,0c.029.043.093.136.15.229h0l15.257,23.144a3.617,3.617,0,0,0,3.02,1.624h0a3.618,3.618,0,0,0,3.013-5.625L460.911,32.078Z" transform="translate(-220.009 -6.38)" fill="#339"/>
        <g id="Group_1" data-name="Group 1" transform="translate(329.526)">
          <path id="Path_6" data-name="Path 6" d="M599.067,13l5.8-13h2.97l5.811,13h-3.156L605.73,1.524h1.188L602.144,13H599.06Zm2.9-2.784.8-2.283h6.691l.816,2.283h-8.3Z" transform="translate(-599.06)" fill="#39f"/>
          <path id="Path_7" data-name="Path 7" d="M621.34,13V0h3.013V13Z" transform="translate(-605.396)" fill="#39f"/>
        </g>
      </g>
      <path id="Path_8" data-name="Path 8" d="M9.8,57.731A9.214,9.214,0,0,1,2.869,54.5a12.06,12.06,0,0,1,0-15.622L14.4,25.893a16.665,16.665,0,0,1,25.5,0l7.264,8.18,1.968-2.218a9.05,9.05,0,0,1,13.869,0,12.06,12.06,0,0,1,0,15.622l-3.092,3.485a16.631,16.631,0,0,1-25.491,0l-7.264-8.18L16.745,54.5a9.239,9.239,0,0,1-6.934,3.235Z" transform="translate(0.002 -5.676)" fill="url(#linear-gradient)"/>
    </g>
  </g>
</svg>
